<svg width="256" height="256" viewBox="0 0 256 256" fill="none" xmlns="http://www.w3.org/2000/svg">
<rect width="256" height="256" fill="#6534FF"/>
<path d="M65.5488 149.248L51.47 130.663H47.8984V149.248H40.1946V106.721H47.8984V124.205H50.0372L66.1095 106.721H75.8691L57.7411 126.469L75.08 149.248H65.5488Z" fill="white"/>
<path d="M92.6628 149.871C89.5481 149.871 86.8486 149.186 84.5644 147.815C82.2803 146.445 80.5083 144.527 79.2486 142.063C78.0027 139.599 77.3797 136.72 77.3797 133.425C77.3797 130.13 78.0027 127.244 79.2486 124.766C80.5083 122.288 82.2803 120.364 84.5644 118.993C86.8486 117.623 89.5481 116.937 92.6628 116.937C95.7776 116.937 98.4771 117.623 100.761 118.993C103.045 120.364 104.81 122.288 106.056 124.766C107.316 127.244 107.946 130.13 107.946 133.425C107.946 136.72 107.316 139.599 106.056 142.063C104.81 144.527 103.045 146.445 100.761 147.815C98.4771 149.186 95.7776 149.871 92.6628 149.871ZM92.7044 143.849C94.3933 143.849 95.8053 143.385 96.9405 142.458C98.0756 141.516 98.9201 140.257 99.4738 138.678C100.041 137.1 100.325 135.342 100.325 133.404C100.325 131.452 100.041 129.687 99.4738 128.109C98.9201 126.517 98.0756 125.25 96.9405 124.309C95.8053 123.368 94.3933 122.897 92.7044 122.897C90.9739 122.897 89.5342 123.368 88.3852 124.309C87.2501 125.25 86.3987 126.517 85.8311 128.109C85.2774 129.687 85.0005 131.452 85.0005 133.404C85.0005 135.342 85.2774 137.1 85.8311 138.678C86.3987 140.257 87.2501 141.516 88.3852 142.458C89.5342 143.385 90.9739 143.849 92.7044 143.849Z" fill="white"/>
<path d="M111.502 158.509V143.06H114.035C114.714 142.534 115.281 141.821 115.738 140.921C116.195 140.007 116.569 138.935 116.859 137.702C117.164 136.457 117.413 135.065 117.607 133.529C117.801 131.978 117.974 130.31 118.126 128.524L119.04 117.353H142.089V143.06H147.031V158.509H139.763V149.248H118.894V158.509H111.502ZM121.76 143.06H134.904V123.416H125.56L125.062 128.524C124.785 131.902 124.418 134.795 123.961 137.204C123.504 139.613 122.771 141.565 121.76 143.06Z" fill="white"/>
<path d="M166.763 149.871C163.565 149.871 160.804 149.206 158.478 147.877C156.166 146.535 154.387 144.638 153.141 142.188C151.895 139.724 151.272 136.823 151.272 133.487C151.272 130.206 151.895 127.327 153.141 124.849C154.401 122.357 156.159 120.419 158.416 119.035C160.672 117.636 163.323 116.937 166.369 116.937C168.334 116.937 170.189 117.256 171.934 117.893C173.692 118.516 175.242 119.485 176.585 120.8C177.942 122.115 179.008 123.79 179.783 125.825C180.558 127.846 180.946 130.255 180.946 133.051V135.356H154.802V130.289H173.74C173.726 128.85 173.415 127.569 172.806 126.448C172.197 125.313 171.345 124.42 170.252 123.769C169.172 123.118 167.912 122.793 166.472 122.793C164.936 122.793 163.586 123.167 162.423 123.914C161.26 124.648 160.354 125.617 159.703 126.822C159.066 128.012 158.741 129.32 158.727 130.746V135.169C158.727 137.024 159.066 138.616 159.745 139.945C160.423 141.26 161.371 142.271 162.589 142.977C163.808 143.669 165.233 144.015 166.867 144.015C167.961 144.015 168.95 143.863 169.836 143.558C170.722 143.24 171.491 142.776 172.141 142.167C172.792 141.558 173.283 140.803 173.616 139.904L180.634 140.693C180.191 142.548 179.347 144.167 178.101 145.552C176.869 146.922 175.291 147.988 173.366 148.75C171.442 149.497 169.241 149.871 166.763 149.871Z" fill="white"/>
<path d="M187.305 161.209V117.353H194.697V122.627H195.134C195.521 121.852 196.068 121.028 196.774 120.156C197.48 119.27 198.435 118.516 199.64 117.893C200.844 117.256 202.381 116.937 204.249 116.937C206.714 116.937 208.935 117.567 210.915 118.827C212.908 120.073 214.487 121.921 215.649 124.371C216.826 126.808 217.414 129.798 217.414 133.342C217.414 136.844 216.84 139.821 215.691 142.271C214.542 144.721 212.978 146.59 210.998 147.877C209.018 149.165 206.776 149.809 204.27 149.809C202.443 149.809 200.927 149.504 199.723 148.895C198.518 148.286 197.549 147.552 196.815 146.694C196.096 145.822 195.535 144.998 195.134 144.223H194.822V161.209H187.305ZM194.677 133.3C194.677 135.363 194.967 137.17 195.549 138.72C196.144 140.27 196.995 141.482 198.103 142.354C199.224 143.212 200.581 143.641 202.173 143.641C203.834 143.641 205.225 143.198 206.347 142.312C207.468 141.413 208.312 140.187 208.88 138.637C209.461 137.073 209.752 135.294 209.752 133.3C209.752 131.321 209.468 129.563 208.901 128.026C208.333 126.489 207.489 125.285 206.367 124.413C205.246 123.541 203.848 123.105 202.173 123.105C200.567 123.105 199.203 123.527 198.082 124.371C196.961 125.216 196.109 126.399 195.528 127.922C194.96 129.445 194.677 131.238 194.677 133.3Z" fill="white"/>
</svg>
